<mxfile host="app.diagrams.net" modified="2023-09-05T18:45:29.093Z" agent="Mozilla/5.0 (Windows NT 10.0; Win64; x64) AppleWebKit/537.36 (KHTML, like Gecko) Chrome/114.0.0.0 Safari/537.36 OPR/100.0.0.0" etag="HN52Brl4whrWmrB3D0J4" version="21.6.8" type="device">
  <diagram name="Page-1" id="5f0bae14-7c28-e335-631c-24af17079c00">
    <mxGraphModel dx="1639" dy="913" grid="1" gridSize="10" guides="1" tooltips="1" connect="1" arrows="1" fold="1" page="1" pageScale="1" pageWidth="1100" pageHeight="850" background="none" math="0" shadow="0">
      <root>
        <mxCell id="0" />
        <mxCell id="1" parent="0" />
        <mxCell id="ZLZzGSdw-Ar5hxi-TkYw-1" value="«Component»&lt;br&gt;&lt;b&gt;Web App&lt;/b&gt;" style="html=1;dropTarget=0;whiteSpace=wrap;" vertex="1" parent="1">
          <mxGeometry x="130" y="100" width="180" height="90" as="geometry" />
        </mxCell>
        <mxCell id="ZLZzGSdw-Ar5hxi-TkYw-2" value="" style="shape=module;jettyWidth=8;jettyHeight=4;" vertex="1" parent="ZLZzGSdw-Ar5hxi-TkYw-1">
          <mxGeometry x="1" width="20" height="20" relative="1" as="geometry">
            <mxPoint x="-27" y="7" as="offset" />
          </mxGeometry>
        </mxCell>
        <mxCell id="ZLZzGSdw-Ar5hxi-TkYw-3" value="«Component»&lt;br&gt;&lt;b&gt;Web Server&lt;/b&gt;" style="html=1;dropTarget=0;whiteSpace=wrap;" vertex="1" parent="1">
          <mxGeometry x="130" y="300" width="180" height="90" as="geometry" />
        </mxCell>
        <mxCell id="ZLZzGSdw-Ar5hxi-TkYw-4" value="" style="shape=module;jettyWidth=8;jettyHeight=4;" vertex="1" parent="ZLZzGSdw-Ar5hxi-TkYw-3">
          <mxGeometry x="1" width="20" height="20" relative="1" as="geometry">
            <mxPoint x="-27" y="7" as="offset" />
          </mxGeometry>
        </mxCell>
        <mxCell id="ZLZzGSdw-Ar5hxi-TkYw-5" value="«Component»&lt;br&gt;&lt;b&gt;Application Server&lt;/b&gt;" style="html=1;dropTarget=0;whiteSpace=wrap;" vertex="1" parent="1">
          <mxGeometry x="455" y="300" width="180" height="90" as="geometry" />
        </mxCell>
        <mxCell id="ZLZzGSdw-Ar5hxi-TkYw-6" value="" style="shape=module;jettyWidth=8;jettyHeight=4;" vertex="1" parent="ZLZzGSdw-Ar5hxi-TkYw-5">
          <mxGeometry x="1" width="20" height="20" relative="1" as="geometry">
            <mxPoint x="-27" y="7" as="offset" />
          </mxGeometry>
        </mxCell>
        <mxCell id="ZLZzGSdw-Ar5hxi-TkYw-7" value="«Component»&lt;br&gt;&lt;b&gt;Database&lt;/b&gt;" style="html=1;dropTarget=0;whiteSpace=wrap;" vertex="1" parent="1">
          <mxGeometry x="775" y="300" width="180" height="90" as="geometry" />
        </mxCell>
        <mxCell id="ZLZzGSdw-Ar5hxi-TkYw-8" value="" style="shape=module;jettyWidth=8;jettyHeight=4;" vertex="1" parent="ZLZzGSdw-Ar5hxi-TkYw-7">
          <mxGeometry x="1" width="20" height="20" relative="1" as="geometry">
            <mxPoint x="-27" y="7" as="offset" />
          </mxGeometry>
        </mxCell>
        <mxCell id="ZLZzGSdw-Ar5hxi-TkYw-9" value="«Component»&lt;br&gt;&lt;b&gt;Mobile App&lt;/b&gt;" style="html=1;dropTarget=0;whiteSpace=wrap;" vertex="1" parent="1">
          <mxGeometry x="130" y="490" width="180" height="90" as="geometry" />
        </mxCell>
        <mxCell id="ZLZzGSdw-Ar5hxi-TkYw-10" value="" style="shape=module;jettyWidth=8;jettyHeight=4;" vertex="1" parent="ZLZzGSdw-Ar5hxi-TkYw-9">
          <mxGeometry x="1" width="20" height="20" relative="1" as="geometry">
            <mxPoint x="-27" y="7" as="offset" />
          </mxGeometry>
        </mxCell>
        <mxCell id="ZLZzGSdw-Ar5hxi-TkYw-26" value="" style="rounded=0;orthogonalLoop=1;jettySize=auto;html=1;endArrow=halfCircle;endFill=0;endSize=6;strokeWidth=1;sketch=0;exitX=0.5;exitY=1;exitDx=0;exitDy=0;" edge="1" parent="1" source="ZLZzGSdw-Ar5hxi-TkYw-1">
          <mxGeometry relative="1" as="geometry">
            <mxPoint x="570" y="395" as="sourcePoint" />
            <mxPoint x="220" y="250" as="targetPoint" />
          </mxGeometry>
        </mxCell>
        <mxCell id="ZLZzGSdw-Ar5hxi-TkYw-27" value="" style="rounded=0;orthogonalLoop=1;jettySize=auto;html=1;endArrow=oval;endFill=0;sketch=0;sourcePerimeterSpacing=0;targetPerimeterSpacing=0;endSize=10;exitX=0.5;exitY=0;exitDx=0;exitDy=0;" edge="1" parent="1" source="ZLZzGSdw-Ar5hxi-TkYw-3">
          <mxGeometry relative="1" as="geometry">
            <mxPoint x="530" y="395" as="sourcePoint" />
            <mxPoint x="220" y="250" as="targetPoint" />
          </mxGeometry>
        </mxCell>
        <mxCell id="ZLZzGSdw-Ar5hxi-TkYw-28" value="" style="ellipse;whiteSpace=wrap;html=1;align=center;aspect=fixed;fillColor=none;strokeColor=none;resizable=0;perimeter=centerPerimeter;rotatable=0;allowArrows=0;points=[];outlineConnect=1;" vertex="1" parent="1">
          <mxGeometry x="600" y="390" width="10" height="10" as="geometry" />
        </mxCell>
        <mxCell id="ZLZzGSdw-Ar5hxi-TkYw-29" value="" style="rounded=0;orthogonalLoop=1;jettySize=auto;html=1;endArrow=halfCircle;endFill=0;endSize=6;strokeWidth=1;sketch=0;exitX=1;exitY=0.5;exitDx=0;exitDy=0;" edge="1" parent="1" source="ZLZzGSdw-Ar5hxi-TkYw-3">
          <mxGeometry relative="1" as="geometry">
            <mxPoint x="320" y="345" as="sourcePoint" />
            <mxPoint x="380" y="345" as="targetPoint" />
          </mxGeometry>
        </mxCell>
        <mxCell id="ZLZzGSdw-Ar5hxi-TkYw-30" value="" style="rounded=0;orthogonalLoop=1;jettySize=auto;html=1;endArrow=oval;endFill=0;sketch=0;sourcePerimeterSpacing=0;targetPerimeterSpacing=0;endSize=10;exitX=0;exitY=0.5;exitDx=0;exitDy=0;" edge="1" parent="1" source="ZLZzGSdw-Ar5hxi-TkYw-5">
          <mxGeometry relative="1" as="geometry">
            <mxPoint x="410" y="345" as="sourcePoint" />
            <mxPoint x="380" y="345" as="targetPoint" />
          </mxGeometry>
        </mxCell>
        <mxCell id="ZLZzGSdw-Ar5hxi-TkYw-31" value="" style="ellipse;whiteSpace=wrap;html=1;align=center;aspect=fixed;fillColor=none;strokeColor=none;resizable=0;perimeter=centerPerimeter;rotatable=0;allowArrows=0;points=[];outlineConnect=1;" vertex="1" parent="1">
          <mxGeometry x="530" y="400" width="10" height="10" as="geometry" />
        </mxCell>
        <mxCell id="ZLZzGSdw-Ar5hxi-TkYw-32" value="" style="rounded=0;orthogonalLoop=1;jettySize=auto;html=1;endArrow=halfCircle;endFill=0;endSize=6;strokeWidth=1;sketch=0;exitX=1;exitY=0.5;exitDx=0;exitDy=0;" edge="1" parent="1" source="ZLZzGSdw-Ar5hxi-TkYw-5">
          <mxGeometry relative="1" as="geometry">
            <mxPoint x="635" y="375" as="sourcePoint" />
            <mxPoint x="705" y="345" as="targetPoint" />
          </mxGeometry>
        </mxCell>
        <mxCell id="ZLZzGSdw-Ar5hxi-TkYw-33" value="" style="rounded=0;orthogonalLoop=1;jettySize=auto;html=1;endArrow=oval;endFill=0;sketch=0;sourcePerimeterSpacing=0;targetPerimeterSpacing=0;endSize=10;exitX=0;exitY=0.5;exitDx=0;exitDy=0;" edge="1" parent="1" source="ZLZzGSdw-Ar5hxi-TkYw-7">
          <mxGeometry relative="1" as="geometry">
            <mxPoint x="745" y="450" as="sourcePoint" />
            <mxPoint x="705" y="345" as="targetPoint" />
          </mxGeometry>
        </mxCell>
        <mxCell id="ZLZzGSdw-Ar5hxi-TkYw-34" value="" style="ellipse;whiteSpace=wrap;html=1;align=center;aspect=fixed;fillColor=none;strokeColor=none;resizable=0;perimeter=centerPerimeter;rotatable=0;allowArrows=0;points=[];outlineConnect=1;" vertex="1" parent="1">
          <mxGeometry x="610" y="370" width="10" height="10" as="geometry" />
        </mxCell>
        <mxCell id="ZLZzGSdw-Ar5hxi-TkYw-35" value="" style="rounded=0;orthogonalLoop=1;jettySize=auto;html=1;endArrow=halfCircle;endFill=0;endSize=6;strokeWidth=1;sketch=0;exitX=0.5;exitY=0;exitDx=0;exitDy=0;" edge="1" parent="1" source="ZLZzGSdw-Ar5hxi-TkYw-9">
          <mxGeometry relative="1" as="geometry">
            <mxPoint x="410" y="365" as="sourcePoint" />
            <mxPoint x="220" y="440" as="targetPoint" />
          </mxGeometry>
        </mxCell>
        <mxCell id="ZLZzGSdw-Ar5hxi-TkYw-36" value="" style="rounded=0;orthogonalLoop=1;jettySize=auto;html=1;endArrow=oval;endFill=0;sketch=0;sourcePerimeterSpacing=0;targetPerimeterSpacing=0;endSize=10;exitX=0.5;exitY=1;exitDx=0;exitDy=0;" edge="1" parent="1" source="ZLZzGSdw-Ar5hxi-TkYw-3">
          <mxGeometry relative="1" as="geometry">
            <mxPoint x="370" y="365" as="sourcePoint" />
            <mxPoint x="220" y="440" as="targetPoint" />
          </mxGeometry>
        </mxCell>
        <mxCell id="ZLZzGSdw-Ar5hxi-TkYw-37" value="" style="ellipse;whiteSpace=wrap;html=1;align=center;aspect=fixed;fillColor=none;strokeColor=none;resizable=0;perimeter=centerPerimeter;rotatable=0;allowArrows=0;points=[];outlineConnect=1;" vertex="1" parent="1">
          <mxGeometry x="440" y="360" width="10" height="10" as="geometry" />
        </mxCell>
        <mxCell id="ZLZzGSdw-Ar5hxi-TkYw-39" value="Send Request" style="text;html=1;align=center;verticalAlign=middle;resizable=0;points=[];autosize=1;strokeColor=none;fillColor=none;" vertex="1" parent="1">
          <mxGeometry x="230" y="230" width="100" height="30" as="geometry" />
        </mxCell>
        <mxCell id="ZLZzGSdw-Ar5hxi-TkYw-40" value="Send Request" style="text;html=1;align=center;verticalAlign=middle;resizable=0;points=[];autosize=1;strokeColor=none;fillColor=none;" vertex="1" parent="1">
          <mxGeometry x="655" y="350" width="100" height="30" as="geometry" />
        </mxCell>
        <mxCell id="ZLZzGSdw-Ar5hxi-TkYw-41" value="Send Request" style="text;html=1;align=center;verticalAlign=middle;resizable=0;points=[];autosize=1;strokeColor=none;fillColor=none;" vertex="1" parent="1">
          <mxGeometry x="330" y="350" width="100" height="30" as="geometry" />
        </mxCell>
        <mxCell id="ZLZzGSdw-Ar5hxi-TkYw-42" value="Send Request" style="text;html=1;align=center;verticalAlign=middle;resizable=0;points=[];autosize=1;strokeColor=none;fillColor=none;" vertex="1" parent="1">
          <mxGeometry x="230" y="430" width="100" height="30" as="geometry" />
        </mxCell>
      </root>
    </mxGraphModel>
  </diagram>
</mxfile>
